<svg width="20" height="20" viewBox="0 0 20 20" fill="none" xmlns="http://www.w3.org/2000/svg">
<path fill-rule="evenodd" clip-rule="evenodd" d="M19.7874 10.2273C19.7874 9.51819 19.7238 8.83637 19.6056 8.18182H10.1874V12.05H15.5692C15.3374 13.3 14.6328 14.3591 13.5737 15.0682V17.5773H16.8056C18.6965 15.8364 19.7874 13.2727 19.7874 10.2273Z" fill="#101729"/>
<path fill-rule="evenodd" clip-rule="evenodd" d="M10.187 20C12.887 20 15.1506 19.1045 16.8052 17.5772L13.5734 15.0682C12.6779 15.6682 11.5325 16.0227 10.187 16.0227C7.58244 16.0227 5.37789 14.2636 4.59153 11.9H1.25061V14.4909C2.89607 17.7591 6.27789 20 10.187 20Z" fill="#101729"/>
<path fill-rule="evenodd" clip-rule="evenodd" d="M4.59193 11.9C4.39193 11.3 4.2783 10.659 4.2783 9.99995C4.2783 9.34086 4.39193 8.69995 4.59193 8.09995V5.50903H1.25102C0.573742 6.85904 0.187378 8.38631 0.187378 9.99995C0.187378 11.6136 0.573742 13.1409 1.25102 14.4909L4.59193 11.9Z" fill="#101729"/>
<path fill-rule="evenodd" clip-rule="evenodd" d="M10.187 3.97728C11.6552 3.97728 12.9734 4.48183 14.0097 5.47274L16.8779 2.60455C15.1461 0.990911 12.8825 0 10.187 0C6.27789 0 2.89607 2.24091 1.25061 5.5091L4.59153 8.10002C5.37789 5.73638 7.58244 3.97728 10.187 3.97728Z" fill="#101729"/>
</svg>
